<svg width="1440" height="1024" viewBox="0 0 1440 1024" fill="none" xmlns="http://www.w3.org/2000/svg">
<g filter="url(#filter0_d_308_6324)">
<path d="M30.0147 382.827C44.9932 406.102 46.0118 435.226 50.0647 462.549C54.1176 489.872 63.8982 519.628 88.3534 532.757C123.433 551.589 168.049 526.393 206.139 538.065C239.331 548.242 257.481 582.416 276.084 611.573C294.688 640.73 324.692 670.514 358.672 663.448C411.193 652.546 404.57 602.136 455.706 576.813C488.26 560.691 510.313 582.882 546.78 571.471C633.316 544.331 390.631 299.946 390.631 299.946L436.278 258.298C436.278 258.298 619.996 479.405 692.366 486.123C735.055 490.09 775.453 462.995 784.456 421.302C793.459 379.609 780.788 336.735 777.246 294.235C773.705 251.735 783.586 202.111 821.201 181.646C845.931 168.18 877.61 170.492 900.735 154.467C958.364 114.534 917.518 10.4692 1006.7 2.97253C1032.76 2.97253 1059.81 1.97643 1086.87 1.97643C1113 3.49834 1099.9 2.97193 1161.02 2.97254C1197.6 2.97291 1156.01 2.97371 1226.16 2.47452C1261.73 2.47453 1251.21 2.47453 1283.78 2.47454C1309.83 2.47454 1275.26 2.47456 1325.86 1.97651C1367.45 1.56723 1310.86 1.97645 1388.49 1.97652C1412.55 2.47477 1395.51 2.47475 1445.62 1.97642L1445.62 1021L5.61487 1021L5.61489 353.603C22.1499 369.541 15.0168 359.575 29.9929 382.829L30.0147 382.827Z" fill="url(#paint0_linear_308_6324)"/>
</g>
<g clip-path="url(#clip0_308_6324)">
<path d="M452.427 378.177L463.723 387.427C468.833 391.61 475.682 392.998 481.557 391.045C499.052 385.218 514.061 374.771 524.958 360.837C528.618 356.157 529.071 349.685 526.144 343.984L519.662 331.384L452.427 378.177Z" fill="#446DF6"/>
<path d="M513.603 336.39L520.017 348.868C521.633 352.014 522.32 355.376 522.101 358.604C521.872 361.827 520.736 364.913 518.71 367.499C517.148 369.496 515.51 371.426 513.795 373.293C517.557 369.899 521.012 366.192 524.132 362.199C525.96 359.864 526.993 357.071 527.193 354.153C527.403 351.241 526.782 348.201 525.316 345.348L518.834 332.748L513.603 336.39Z" fill="#D2E4FF"/>
<path d="M503.144 379.114C497.886 382.075 492.285 384.559 486.407 386.517C480.532 388.475 473.684 387.087 468.572 382.899L458.042 374.273L519.663 331.386L521.046 334.075L475.361 365.866L486.658 375.12C491.381 378.987 497.592 380.463 503.144 379.114ZM480.972 361.963L521.048 334.076L520.612 333.226L480.212 361.338L480.972 361.963Z" fill="#371A45" fill-opacity="0.35"/>
<path d="M499.637 295.855C512.926 288.5 544.009 287.003 572.264 337.976C572.635 338.645 571.984 339.326 571.26 339.028C563.361 335.788 526.345 320.309 510.523 332.31L499.637 295.855Z" fill="#446DF6"/>
<path d="M563.915 335.275C567.381 336.573 570.103 337.703 571.668 338.342C572.4 338.641 573.045 337.964 572.674 337.294C544.419 286.315 513.34 287.817 500.047 295.173L501.227 299.121C515.379 294.58 540.223 297.715 563.915 335.275Z" fill="#D2E4FF"/>
<path d="M508.948 334.896C510.136 335.62 511.655 335.633 512.72 334.827C518.007 330.817 532.46 326.379 569.837 341.726L570.215 341.88C571.838 342.547 573.596 342.237 574.695 341.092C575.793 339.943 575.968 338.237 575.137 336.738C561.402 311.96 545.623 296.597 528.231 291.074C512.891 286.203 501.83 290.88 497.788 293.119C496.29 293.947 495.905 295.85 496.927 297.362C497.951 298.876 499.993 299.426 501.49 298.598C504.813 296.759 513.92 292.921 526.713 296.984C540.752 301.441 554.336 314.11 566.235 333.768C531.689 320.594 515.694 324.208 508.328 329.796C506.978 330.819 506.868 332.775 508.08 334.165C508.337 334.456 508.632 334.703 508.948 334.896Z" fill="#1A1E45"/>
<path d="M422.357 349.635C411.033 359.41 400.178 387.097 445.305 426.327C445.897 426.842 446.785 426.454 446.678 425.728C445.5 417.809 440.405 380.117 457.256 369.377L422.357 349.635Z" fill="#D25658"/>
<path d="M445.306 426.33C445.903 426.842 446.785 426.453 446.677 425.727C446.08 421.671 444.446 409.803 445.267 397.748C446.036 386.355 448.999 374.791 457.081 369.502C457.14 369.46 457.205 369.422 457.259 369.382L457.049 369.26L422.362 349.638C419.184 352.381 416.043 356.536 414.169 361.966C409.35 375.862 412.846 398.106 445.306 426.33Z" fill="#446DF6"/>
<path d="M445.266 397.748C446.035 386.355 448.998 374.79 457.08 369.501C457.069 369.421 457.06 369.338 457.046 369.262L422.36 349.637C419.181 352.383 416.04 356.538 414.168 361.966C418.517 373.084 427.864 385.431 445.266 397.748Z" fill="#371A45" fill-opacity="0.35"/>
<mask id="mask0_308_6324" style="mask-type:luminance" maskUnits="userSpaceOnUse" x="388" y="342" width="92" height="90">
<path d="M479.9 379.163L420.506 342.944L388.54 395.362L447.935 431.581L479.9 379.163Z" fill="white"/>
</mask>
<g mask="url(#mask0_308_6324)">
<path d="M443.875 429.014C445.108 429.767 446.603 429.907 447.867 429.352C449.362 428.693 450.172 427.217 449.932 425.591C448.414 415.387 444.606 381.369 459.263 372.027C460.701 371.112 460.966 369.186 459.859 367.723C458.752 366.259 456.689 365.816 455.254 366.733C440.335 376.238 440.872 403.685 442.65 419.842C425.766 404.023 416.492 388.516 415.748 374.747C415.03 361.464 422.413 354.011 424.692 352.042C425.971 350.94 425.959 348.97 424.672 347.641C423.384 346.315 421.305 346.132 420.026 347.234C416.492 350.286 408.353 359.051 409.189 374.462C410.111 391.513 421.565 409.708 443.228 428.54C443.431 428.717 443.648 428.876 443.875 429.014Z" fill="#1A1E45"/>
</g>
<path d="M288.589 111.546C288.589 111.546 260.574 182.926 329.479 279.586C388.183 361.935 453.271 378.692 453.271 378.692C471.22 374.35 487.362 366.098 500.602 354.727C508.285 348.121 514.992 340.463 520.506 331.894C520.506 331.894 520.79 304.005 500.307 263.134C499.602 261.73 498.871 260.301 498.117 258.865C489.907 243.248 478.703 225.883 463.386 207.563C459.778 203.236 455.93 198.863 451.849 194.441C451.688 194.262 451.525 194.093 451.363 193.923C434.858 176.127 418.334 162.168 402.49 151.215C401.984 150.859 401.48 150.518 400.978 150.175C339.538 108.352 288.589 111.546 288.589 111.546Z" fill="#DBE9FF"/>
<path d="M292.939 211.306C319.366 181.898 352.614 158.76 390.491 143.414C333.466 108.173 287.752 111.035 287.752 111.035C287.752 111.035 272.12 150.865 292.939 211.306Z" fill="#446DF6"/>
<path d="M286.498 115.761C287.436 112.222 288.167 110.353 288.167 110.353C288.167 110.353 333.879 107.489 390.905 142.734C388.46 143.723 386.034 144.747 383.627 145.802C334.752 116.816 294.943 115.649 286.498 115.761Z" fill="#D2E4FF"/>
<path d="M291.763 217.642L295.521 213.464C321.836 184.182 354.303 161.588 392.015 146.31L397.397 144.129L392.083 140.844C346.882 112.875 308.45 108.53 294.017 107.943C288.583 107.723 284.077 110.857 282.801 115.75C279.417 128.736 273.325 164.109 289.823 212.013L291.763 217.642ZM383.551 142.775C349.101 157.557 319.088 178.44 294.195 204.965C280.57 161.531 286.07 129.756 289.188 117.796C289.778 115.532 291.863 114.079 294.376 114.182C307.668 114.725 342.209 118.641 383.551 142.775Z" fill="#1A1E45"/>
<path d="M411.493 362.409C435.027 376.76 451.189 381.015 451.872 381.19L452.717 381.407L453.529 381.211C468.023 377.701 481.362 371.756 493.174 363.537C504.989 355.314 514.859 345.109 522.514 333.201L522.942 332.536L522.951 331.723C522.96 331.064 523.012 315.295 514.434 290.082C506.567 266.967 489.59 231.186 453.381 192.002C434.397 171.46 413.774 154.246 392.086 140.846L390.536 139.888L388.965 140.523C350.495 156.112 317.37 179.146 290.502 208.99L289.166 210.082L289.822 212.015C297.735 235.004 309.903 258.101 325.989 280.662C356.667 323.696 389.134 348.697 410.973 362.088C411.145 362.193 411.318 362.302 411.493 362.409ZM452.191 374.939C448.698 373.899 434.238 369.192 414.627 357.233C414.362 357.071 414.095 356.908 413.829 356.743C392.663 343.715 361.168 319.398 331.309 277.513C315.998 256.033 304.335 234.086 296.62 212.252C322.37 183.964 353.922 162.006 390.445 146.952C410.993 159.855 430.56 176.304 448.632 195.861C512.082 264.525 516.115 322.897 516.367 330.275C509.166 341.279 499.953 350.726 488.972 358.368C477.994 366.011 465.621 371.582 452.191 374.939Z" fill="#1A1E45"/>
<path d="M464.424 391.624C470.082 395.074 476.908 396.002 482.907 394.007C500.946 387.998 516.423 377.226 527.664 362.858C532.017 357.292 532.556 349.624 529.07 342.844L522.589 330.242C521.761 328.639 519.783 327.849 518.172 328.484C516.555 329.115 515.913 330.929 516.742 332.535L523.22 345.135C525.606 349.771 525.236 355.019 522.26 358.824C511.701 372.327 497.163 382.443 480.213 388.089C475.434 389.681 469.883 388.554 465.725 385.149L454.432 375.901C452.994 374.722 450.931 374.789 449.826 376.048C448.721 377.307 448.994 379.285 450.432 380.464L461.727 389.715C462.587 390.417 463.49 391.055 464.424 391.624Z" fill="#1A1E45"/>
<path d="M337.257 203.577C336.547 204.741 335.903 205.939 335.324 207.176C334.744 208.41 334.234 209.676 333.792 210.973C333.351 212.267 332.977 213.586 332.675 214.929C332.371 216.274 332.141 217.634 331.982 219.013C331.824 220.389 331.737 221.779 331.726 223.178C331.711 224.579 331.77 225.98 331.9 227.388C332.034 228.795 332.236 230.201 332.509 231.602C332.786 233.002 333.132 234.394 333.549 235.779C333.965 237.161 334.45 238.527 335.004 239.878C335.555 241.227 336.176 242.555 336.86 243.859C337.547 245.163 338.293 246.44 339.105 247.687C339.915 248.932 340.785 250.145 341.712 251.321C342.642 252.498 343.623 253.634 344.659 254.728C345.694 255.826 346.781 256.874 347.917 257.879C349.05 258.882 350.23 259.833 351.451 260.736C352.674 261.64 353.934 262.485 355.233 263.277C356.532 264.069 357.861 264.802 359.224 265.476C360.586 266.148 361.971 266.762 363.382 267.31C364.795 267.86 366.225 268.346 367.675 268.763C369.122 269.183 370.581 269.536 372.054 269.823C373.523 270.109 375 270.328 376.478 270.478C377.958 270.629 379.434 270.707 380.909 270.72C382.381 270.732 383.846 270.676 385.298 270.548C386.753 270.422 388.189 270.228 389.608 269.965C391.03 269.702 392.426 269.372 393.798 268.977C395.168 268.578 396.51 268.114 397.823 267.589C399.134 267.06 400.407 266.471 401.645 265.816C402.884 265.166 404.08 264.452 405.231 263.681C406.384 262.908 407.488 262.081 408.544 261.195C409.6 260.312 410.601 259.376 411.55 258.391C412.501 257.404 413.393 256.371 414.224 255.29C415.059 254.209 415.829 253.088 416.539 251.924C417.247 250.762 417.893 249.562 418.47 248.327C419.052 247.091 419.562 245.825 420.003 244.53C420.446 243.233 420.819 241.914 421.121 240.572C421.423 239.229 421.655 237.867 421.813 236.49C421.972 235.111 422.058 233.724 422.07 232.322C422.084 230.924 422.026 229.52 421.895 228.115C421.762 226.705 421.558 225.302 421.286 223.901C421.01 222.498 420.664 221.106 420.246 219.724C419.831 218.34 419.346 216.974 418.791 215.625C418.239 214.276 417.619 212.948 416.936 211.642C416.249 210.337 415.502 209.063 414.69 207.816C413.882 206.568 413.011 205.356 412.084 204.18C411.154 203.002 410.173 201.867 409.137 200.772C408.101 199.677 407.015 198.626 405.878 197.624C404.745 196.621 403.566 195.667 402.344 194.767C401.12 193.863 399.861 193.018 398.561 192.226C397.262 191.434 395.934 190.701 394.57 190.027C393.21 189.352 391.823 188.741 390.413 188.193C389.001 187.64 387.569 187.157 386.122 186.737C384.674 186.317 383.215 185.964 381.743 185.677C380.273 185.392 378.796 185.172 377.317 185.025C375.837 184.874 374.362 184.794 372.887 184.78C371.414 184.771 369.949 184.827 368.497 184.955C367.043 185.079 365.607 185.273 364.187 185.538C362.766 185.799 361.37 186.129 359.997 186.526C358.626 186.925 357.286 187.386 355.972 187.914C354.662 188.44 353.387 189.032 352.151 189.684C350.91 190.337 349.716 191.048 348.563 191.822C347.412 192.592 346.307 193.422 345.252 194.305C344.196 195.188 343.195 196.124 342.244 197.112C341.295 198.097 340.403 199.13 339.571 200.213C338.737 201.291 337.966 202.415 337.257 203.577Z" fill="#371A45" fill-opacity="0.35"/>
<path d="M343.05 201.086C342.412 202.133 341.832 203.212 341.313 204.322C340.792 205.433 340.333 206.573 339.935 207.736C339.538 208.903 339.204 210.089 338.932 211.296C338.659 212.505 338.453 213.728 338.308 214.965C338.165 216.207 338.089 217.455 338.076 218.712C338.065 219.97 338.118 221.234 338.235 222.497C338.354 223.764 338.535 225.026 338.784 226.288C339.03 227.549 339.342 228.799 339.717 230.045C340.091 231.286 340.528 232.516 341.025 233.728C341.523 234.944 342.08 236.136 342.697 237.311C343.311 238.484 343.986 239.631 344.713 240.752C345.441 241.874 346.223 242.961 347.057 244.02C347.893 245.08 348.776 246.102 349.707 247.086C350.641 248.071 351.616 249.015 352.636 249.915C353.657 250.82 354.719 251.676 355.817 252.486C356.917 253.298 358.051 254.06 359.216 254.77C360.385 255.483 361.581 256.142 362.804 256.747C364.03 257.353 365.277 257.906 366.546 258.398C367.816 258.894 369.101 259.328 370.402 259.706C371.706 260.085 373.018 260.402 374.341 260.658C375.664 260.915 376.992 261.114 378.322 261.247C379.652 261.381 380.978 261.454 382.305 261.465C383.631 261.475 384.946 261.425 386.253 261.309C387.561 261.197 388.854 261.022 390.129 260.786C391.408 260.55 392.66 260.253 393.896 259.896C395.129 259.537 396.337 259.123 397.515 258.647C398.694 258.175 399.842 257.643 400.953 257.056C402.066 256.47 403.142 255.83 404.177 255.133C405.214 254.44 406.207 253.696 407.157 252.9C408.105 252.106 409.007 251.266 409.86 250.377C410.714 249.492 411.517 248.562 412.264 247.589C413.013 246.619 413.707 245.61 414.345 244.563C414.983 243.516 415.563 242.437 416.082 241.327C416.606 240.217 417.065 239.077 417.46 237.913C417.86 236.747 418.194 235.562 418.466 234.355C418.739 233.146 418.945 231.923 419.087 230.684C419.232 229.444 419.309 228.195 419.32 226.937C419.333 225.68 419.28 224.416 419.16 223.152C419.044 221.886 418.86 220.623 418.614 219.362C418.365 218.1 418.056 216.851 417.681 215.606C417.307 214.364 416.87 213.135 416.37 211.921C415.875 210.706 415.318 209.514 414.701 208.339C414.085 207.165 413.412 206.02 412.684 204.898C411.957 203.777 411.172 202.687 410.338 201.629C409.505 200.57 408.622 199.549 407.688 198.563C406.757 197.579 405.782 196.635 404.759 195.733C403.741 194.83 402.679 193.975 401.579 193.163C400.481 192.353 399.347 191.591 398.179 190.878C397.013 190.168 395.816 189.508 394.591 188.902C393.368 188.297 392.121 187.745 390.85 187.251C389.582 186.757 388.297 186.322 386.993 185.943C385.692 185.565 384.38 185.248 383.057 184.992C381.731 184.734 380.406 184.537 379.076 184.403C377.746 184.27 376.417 184.195 375.093 184.186C373.767 184.175 372.451 184.226 371.142 184.34C369.837 184.454 368.544 184.628 367.269 184.864C365.99 185.101 364.736 185.396 363.502 185.754C362.266 186.111 361.061 186.527 359.881 187.002C358.704 187.476 357.556 188.007 356.443 188.593C355.332 189.181 354.256 189.82 353.218 190.516C352.184 191.211 351.191 191.954 350.241 192.751C349.293 193.545 348.391 194.384 347.536 195.272C346.684 196.158 345.881 197.088 345.131 198.06C344.383 199.03 343.689 200.039 343.05 201.086Z" fill="#446DF6"/>
<path d="M346.755 196.325C347.423 195.782 348.113 195.26 348.829 194.76C366.066 182.76 391.681 187.344 406.039 204.989C418.697 220.546 418.382 241.064 406.317 253.927C421.685 241.504 423.268 218.706 409.501 201.781C395.138 184.131 369.528 179.552 352.282 191.548C350.23 192.984 348.384 194.587 346.755 196.325Z" fill="#D2E4FF"/>
<path d="M347.484 244.551C361.84 262.194 387.452 266.783 404.692 254.784C410.114 251.007 414.058 246.044 416.476 240.458C414.654 242.549 412.544 244.456 410.141 246.131C392.899 258.132 367.282 253.553 352.923 235.902C343.08 223.803 341.092 208.692 346.37 196.536C335.134 209.434 335.128 229.359 347.484 244.551Z" fill="#371A45" fill-opacity="0.35"/>
<path d="M357.639 257.378C362.842 260.55 368.622 262.763 374.707 263.85C386.388 265.94 397.784 263.635 406.796 257.363C415.807 251.09 421.358 241.601 422.423 230.643C423.489 219.684 419.941 208.567 412.437 199.344C396.944 180.299 369.204 175.339 350.599 188.287C331.995 201.232 329.462 227.263 344.956 246.308C348.552 250.726 352.852 254.458 357.639 257.378ZM396.645 193.482C400.644 195.921 404.303 199.058 407.391 202.854C413.772 210.701 416.79 220.152 415.883 229.474C414.978 238.794 410.255 246.863 402.592 252.196C394.928 257.531 385.237 259.49 375.303 257.714C365.37 255.938 356.385 250.64 350.002 242.792C336.826 226.596 338.979 204.461 354.801 193.45C366.913 185.021 383.584 185.517 396.645 193.482Z" fill="#1A1E45"/>
<path d="M356.078 208.356C355.672 209.021 355.303 209.706 354.973 210.414C354.642 211.122 354.348 211.844 354.097 212.587C353.843 213.329 353.631 214.082 353.457 214.852C353.285 215.619 353.152 216.397 353.06 217.186C352.972 217.975 352.922 218.77 352.913 219.57C352.905 220.37 352.939 221.173 353.014 221.977C353.088 222.783 353.205 223.586 353.364 224.388C353.521 225.192 353.718 225.986 353.959 226.777C354.195 227.569 354.472 228.349 354.79 229.123C355.105 229.896 355.458 230.655 355.853 231.402C356.244 232.148 356.672 232.878 357.136 233.59C357.6 234.303 358.097 234.999 358.627 235.671C359.16 236.345 359.718 236.994 360.313 237.622C360.905 238.248 361.527 238.848 362.177 239.423C362.826 239.997 363.501 240.542 364.199 241.055C364.899 241.572 365.622 242.057 366.364 242.51C367.107 242.962 367.866 243.382 368.646 243.767C369.424 244.154 370.218 244.504 371.026 244.819C371.834 245.134 372.65 245.41 373.48 245.651C374.308 245.891 375.144 246.092 375.984 246.255C376.827 246.42 377.673 246.544 378.519 246.63C379.365 246.716 380.21 246.762 381.052 246.769C381.894 246.776 382.733 246.744 383.564 246.67C384.396 246.597 385.219 246.488 386.03 246.335C386.841 246.185 387.64 245.998 388.427 245.77C389.21 245.543 389.977 245.279 390.728 244.975C391.48 244.675 392.207 244.337 392.917 243.965C393.624 243.591 394.308 243.182 394.966 242.741C395.626 242.298 396.259 241.825 396.862 241.321C397.467 240.814 398.04 240.28 398.582 239.715C399.125 239.151 399.636 238.559 400.114 237.941C400.589 237.322 401.031 236.682 401.437 236.017C401.843 235.352 402.21 234.663 402.543 233.957C402.874 233.249 403.166 232.525 403.418 231.786C403.672 231.044 403.885 230.289 404.059 229.519C404.231 228.752 404.362 227.972 404.452 227.185C404.544 226.396 404.593 225.603 404.602 224.803C404.609 223.999 404.577 223.198 404.499 222.392C404.424 221.588 404.309 220.783 404.153 219.983C403.994 219.181 403.795 218.383 403.558 217.593C403.322 216.802 403.042 216.02 402.726 215.248C402.41 214.477 402.054 213.717 401.664 212.969C401.272 212.223 400.845 211.493 400.381 210.78C399.916 210.068 399.418 209.375 398.885 208.701C398.357 208.026 397.794 207.377 397.202 206.751C396.607 206.124 395.988 205.525 395.338 204.951C394.688 204.377 394.014 203.831 393.314 203.314C392.615 202.797 391.895 202.314 391.152 201.861C390.41 201.408 389.648 200.987 388.868 200.602C388.091 200.219 387.297 199.869 386.489 199.554C385.681 199.239 384.862 198.961 384.035 198.722C383.204 198.481 382.373 198.279 381.528 198.116C380.688 197.953 379.843 197.827 378.997 197.741C378.151 197.654 377.307 197.609 376.465 197.602C375.618 197.596 374.782 197.629 373.952 197.7C373.118 197.772 372.298 197.883 371.486 198.035C370.673 198.184 369.875 198.375 369.089 198.601C368.304 198.826 367.535 199.092 366.786 199.394C366.036 199.695 365.307 200.032 364.598 200.408C363.891 200.782 363.209 201.189 362.546 201.63C361.888 202.071 361.258 202.546 360.654 203.05C360.049 203.557 359.475 204.093 358.932 204.658C358.388 205.218 357.881 205.811 357.403 206.429C356.925 207.047 356.484 207.691 356.078 208.356Z" fill="#1A1E45"/>
<path d="M358.9 236.01C368.033 247.241 384.329 250.152 395.299 242.517C397.676 240.866 399.607 238.853 401.078 236.595C400.866 236.758 400.648 236.913 400.424 237.072C389.454 244.707 373.158 241.796 364.023 230.568C356.862 221.772 356.23 210.485 361.562 202.337C351.196 210.112 349.955 225.012 358.9 236.01Z" fill="white" fill-opacity="0.3"/>
<path d="M355.196 209.256C355.528 209.006 355.856 208.756 356.202 208.514C367.173 200.883 383.466 203.792 392.601 215.02C399.48 223.47 400.338 234.227 395.658 242.275C405.707 234.424 406.817 219.74 397.969 208.865C388.838 197.643 372.548 194.722 361.579 202.357C358.868 204.247 356.723 206.604 355.196 209.256Z" fill="#371A45" fill-opacity="0.35"/>
<path d="M364.79 245.108C368.243 247.214 372.078 248.68 376.112 249.402C383.863 250.79 391.424 249.26 397.402 245.101C409.744 236.511 411.422 219.243 401.144 206.61C396.167 200.489 389.155 196.353 381.408 194.971C373.66 193.585 366.099 195.115 360.121 199.274C347.78 207.864 346.099 225.13 356.379 237.765C358.761 240.694 361.613 243.171 364.79 245.108ZM389.581 204.431C392.04 205.931 394.248 207.848 396.094 210.121C404.057 219.906 402.754 233.279 393.196 239.932C383.638 246.586 369.383 244.037 361.424 234.251C353.461 224.466 354.764 211.093 364.322 204.44C368.953 201.217 374.809 200.033 380.809 201.105C383.936 201.664 386.906 202.8 389.581 204.431Z" fill="#1A1E45"/>
<path d="M331.321 133.477C334.452 128.729 348.02 131.785 354.357 135.713C360.92 139.78 364.266 143.216 362.549 146.091C360.156 150.108 354.163 148.386 347.933 144.872C343.529 142.385 327.457 139.335 331.321 133.477Z" fill="white" fill-opacity="0.2"/>
<path d="M311.064 129.532C313.985 125.542 322.047 125.086 325.326 126.649C328.726 128.27 330.195 130.068 328.542 132.453C326.235 135.781 322.744 135.715 319.455 134.421C317.123 133.506 307.463 134.456 311.064 129.532Z" fill="white" fill-opacity="0.2"/>
</g>
<defs>
<filter id="filter0_d_308_6324" x="-2.92628" y="-5.038" width="1457.09" height="1036.28" filterUnits="userSpaceOnUse" color-interpolation-filters="sRGB">
<feFlood flood-opacity="0" result="BackgroundImageFix"/>
<feColorMatrix in="SourceAlpha" type="matrix" values="0 0 0 0 0 0 0 0 0 0 0 0 0 0 0 0 0 0 127 0" result="hardAlpha"/>
<feOffset dy="1.70823"/>
<feGaussianBlur stdDeviation="4.27057"/>
<feComposite in2="hardAlpha" operator="out"/>
<feColorMatrix type="matrix" values="0 0 0 0 0.214419 0 0 0 0 0.0240625 0 0 0 0 0.525 0 0 0 1 0"/>
<feBlend mode="normal" in2="BackgroundImageFix" result="effect1_dropShadow_308_6324"/>
<feBlend mode="normal" in="SourceGraphic" in2="effect1_dropShadow_308_6324" result="shape"/>
</filter>
<linearGradient id="paint0_linear_308_6324" x1="1118.5" y1="-64" x2="1552.83" y2="906.314" gradientUnits="userSpaceOnUse">
<stop offset="0.0001" stop-color="#13244F"/>
<stop offset="0.947917" stop-color="#0E3D8A"/>
</linearGradient>
<clipPath id="clip0_308_6324">
<rect width="498.85" height="309.678" fill="white" transform="matrix(-0.853774 -0.520645 -0.520644 0.853774 690.137 266.724)"/>
</clipPath>
</defs>
</svg>
