<svg width="1440" height="1024" viewBox="0 0 1440 1024" fill="none" xmlns="http://www.w3.org/2000/svg">
<g clip-path="url(#clip0_79_3140)">
<mask id="mask0_79_3140" style="mask-type:luminance" maskUnits="userSpaceOnUse" x="140" y="197" width="858" height="629">
<path d="M997.901 232.725L980.215 825.2L140.248 790.318L157.934 197.843L997.901 232.725Z" fill="white"/>
</mask>
<g mask="url(#mask0_79_3140)">
<path d="M857.247 363.237C857.431 357.097 866.408 357.47 866.225 363.61C866.042 369.75 857.064 369.377 857.247 363.237ZM897.584 403.234C898.153 402.289 898.181 401.336 897.67 400.346L897.129 399.415C896.887 398.935 896.543 398.558 896.111 398.267C895.679 397.962 895.186 397.805 894.66 397.783C893.878 397.766 893.188 398.025 892.588 398.59C892.044 399.189 891.738 399.903 891.685 400.733C891.65 401.913 892.106 402.81 893.04 403.454L893.889 404.095C894.766 404.707 895.675 404.745 896.602 404.208C897.007 403.967 897.33 403.648 897.584 403.234ZM916.054 371.992C916.237 365.853 907.259 365.48 907.076 371.62C906.893 377.759 915.87 378.147 916.054 371.992ZM840.762 392.32C840.946 386.166 831.968 385.793 831.784 391.948C831.601 398.087 840.578 398.475 840.762 392.32ZM877.485 564.274C877.669 558.119 868.691 557.747 868.507 563.902C868.324 570.041 877.301 570.414 877.485 564.274ZM895.702 551.494C895.885 545.355 886.908 544.982 886.724 551.122C886.54 557.277 895.518 557.649 895.702 551.494ZM911.304 597.248C911.487 591.093 902.524 590.721 902.34 596.876C902.157 603.015 911.12 603.387 911.304 597.248ZM1060 648.739C1060.19 642.599 1051.21 642.226 1051.03 648.366C1050.84 654.521 1059.82 654.893 1060 648.739ZM1028.56 650.143C1028.74 644.004 1019.76 643.631 1019.58 649.771C1019.4 655.925 1028.37 656.298 1028.56 650.143ZM1041.49 789.192C1041.64 788.956 1041.71 788.671 1041.75 788.385C1041.85 788.283 1041.96 788.182 1042.05 788.064C1042.51 787.266 1042.49 786.478 1041.97 785.714C1041.46 784.936 1040.77 784.665 1039.89 784.871L1039.89 784.901C1038.96 785.135 1038.35 785.73 1038.03 786.702C1037.83 787.314 1037.81 787.934 1038.01 788.563C1038.15 789.083 1038.42 789.504 1038.85 789.809C1039.3 790.115 1039.78 790.196 1040.29 790.081C1040.81 789.966 1041.2 789.664 1041.49 789.192ZM930.282 679.934C930.466 673.795 921.502 673.423 921.319 679.562C921.135 685.717 930.099 686.074 930.282 679.934ZM970.209 796.514C970.026 802.653 979.003 803.041 979.187 796.886C979.37 790.747 970.393 790.374 970.209 796.514ZM249.5 561.839C249.684 555.684 240.707 555.312 240.523 561.467C240.339 567.606 249.317 567.979 249.5 561.839ZM283.609 559.879C283.792 553.739 274.829 553.367 274.645 559.507C274.461 565.662 283.425 566.034 283.609 559.879ZM278.262 579.855C278.445 573.716 269.482 573.343 269.298 579.483C269.114 585.638 278.078 586.01 278.262 579.855ZM229.201 737.694C229.384 731.555 220.406 731.182 220.223 737.322C220.04 743.461 229.017 743.834 229.201 737.694ZM268.949 732.607C269.133 726.467 260.155 726.094 259.972 732.234C259.788 738.389 268.766 738.762 268.949 732.607ZM224.248 771.148C224.431 765.008 215.453 764.635 215.27 770.775C215.086 776.93 224.064 777.287 224.248 771.148ZM714.093 753.312C713.909 759.452 722.872 759.839 723.056 753.684C723.239 747.545 714.276 747.158 714.093 753.312ZM788.053 738.986C788.236 732.846 779.259 732.458 779.075 738.613C778.892 744.753 787.87 745.125 788.054 738.97L788.053 738.986ZM778.889 787.723C779.072 781.583 770.094 781.211 769.911 787.35C769.727 793.505 778.705 793.863 778.889 787.723ZM962.487 434.061C962.891 434.335 963.341 434.52 963.807 434.615C964.289 434.696 964.758 434.685 965.231 434.584C965.689 434.466 966.122 434.272 966.515 433.971C966.907 433.684 967.231 433.319 967.5 432.891L967.883 431.983C968.054 431.476 968.098 430.963 968 430.444C967.99 430.307 967.965 430.185 967.94 430.048L967.941 430.018L967.866 429.212L967.603 428.474C967.43 428.104 967.197 427.806 966.89 427.582C966.711 427.392 966.502 427.248 966.263 427.162C966.054 427.017 965.815 426.931 965.559 426.936C965.305 426.85 965.049 426.839 964.792 426.904C964.593 426.896 964.407 426.933 964.22 426.986L963.536 427.049C963.077 427.151 962.659 427.36 962.293 427.694C961.887 427.949 961.564 428.299 961.323 428.743C961.055 429.156 960.898 429.634 960.854 430.147C960.62 431.818 961.164 433.113 962.487 434.061ZM985.091 402.022C985.089 402.082 985.088 402.128 985.086 402.188C985.05 402.929 984.97 403.682 984.991 404.425C984.982 405.212 985.144 405.961 985.479 406.656C985.706 407.135 986.036 407.527 986.454 407.832C986.871 408.137 987.336 408.308 987.846 408.374C988.342 408.425 988.828 408.339 989.289 408.131C989.765 407.924 990.144 407.607 990.455 407.196C990.974 406.49 991.254 405.7 991.323 404.809C991.375 404.024 991.384 403.237 991.365 402.449C991.421 401.527 991.147 400.714 990.57 400.023C989.993 399.333 989.265 398.955 988.399 398.904C987.533 398.837 986.771 399.124 986.127 399.733C985.483 400.342 985.133 401.1 985.091 402.022ZM963.446 479.085C963.63 472.946 954.652 472.573 954.469 478.713C954.285 484.867 963.263 485.24 963.446 479.085ZM916.441 435.708L915.348 436.571C914.645 437.268 914.464 438.093 914.805 439.046C915.146 439.999 915.785 440.51 916.751 440.55C917.348 440.575 917.866 440.37 918.292 439.933L919.192 438.85C919.574 438.427 919.788 437.936 919.833 437.362C919.851 436.773 919.667 436.25 919.282 435.81C918.897 435.386 918.434 435.154 917.88 435.131L917.338 435.185C916.994 435.276 916.69 435.445 916.441 435.708ZM1049.04 570.669C1048.85 576.809 1057.83 577.197 1058.01 571.042C1058.2 564.902 1049.22 564.53 1049.04 570.669ZM959.849 857.678C960.032 851.538 951.054 851.166 950.871 857.305C950.687 863.46 959.666 863.818 959.849 857.678ZM1002.38 813.384C1002.33 814.124 1002.53 814.768 1003 815.318C1003.47 815.882 1004.04 816.178 1004.74 816.207C1005.43 816.251 1006.04 816.019 1006.54 815.51C1007.05 815.016 1007.31 814.391 1007.32 813.65C1007.34 812.909 1007.1 812.278 1006.61 811.743C1006.12 811.223 1005.53 810.956 1004.84 810.957C1004.18 810.945 1003.62 811.18 1003.15 811.645C1002.68 812.125 1002.42 812.689 1002.38 813.384ZM694.429 444.479L694.645 443.912C698.222 434.613 680.908 433.818 683.948 443.468L684.13 444.051C684.435 445.26 685.06 446.255 685.989 447.035C686.919 447.816 687.973 448.238 689.152 448.287C690.331 448.336 691.408 448.002 692.382 447.301C693.356 446.599 694.038 445.658 694.429 444.479ZM732.857 425.497C733.041 419.342 724.077 418.97 723.894 425.125C723.71 431.265 732.674 431.637 732.857 425.497ZM359.231 417.511C360.106 417.275 360.805 416.744 361.312 415.947C361.793 415.089 361.934 414.171 361.722 413.178C361.559 412.43 361.267 411.721 360.846 411.083C360.492 410.538 360.051 410.081 359.521 409.71C359.354 409.598 359.173 409.469 359.005 409.356C358.015 408.694 356.955 408.499 355.823 408.77C355.249 408.927 354.743 409.194 354.277 409.584C353.81 409.973 353.44 410.442 353.168 410.991C352.895 411.555 352.75 412.14 352.716 412.774C352.669 413.393 352.765 414.003 352.975 414.602C353.129 415.153 353.399 415.634 353.785 416.044C354.28 416.609 354.88 417.013 355.569 417.253L355.584 417.254C356.185 417.582 356.82 417.759 357.502 417.803C358.085 417.797 358.671 417.7 359.231 417.511ZM443.929 518.946C444.112 512.806 435.149 512.434 434.966 518.574C434.782 524.728 443.746 525.085 443.929 518.946ZM404.409 552.099C404.592 545.96 395.615 545.587 395.431 551.727C395.248 557.866 404.226 558.239 404.409 552.099ZM447.402 564.12C447.585 557.98 438.607 557.607 438.424 563.747C438.241 569.887 447.218 570.275 447.402 564.12ZM287.592 372.218C287.776 366.063 278.812 365.691 278.628 371.845C278.445 377.985 287.408 378.357 287.592 372.218ZM504.802 287.057C504.853 286.302 504.631 285.626 504.15 285.061C503.684 284.497 503.082 284.184 502.371 284.155C501.661 284.11 501.043 284.342 500.515 284.865C499.988 285.373 499.727 286.013 499.718 286.785C499.696 287.541 499.947 288.187 500.442 288.738C500.952 289.274 501.556 289.556 502.267 289.556C502.935 289.553 503.511 289.32 503.995 288.84C504.493 288.361 504.752 287.766 504.802 287.057ZM550.378 793.59C550.562 787.45 541.584 787.077 541.401 793.217C541.217 799.372 550.194 799.745 550.378 793.59ZM584.059 794.988C584.242 788.848 575.265 788.476 575.081 794.615C574.898 800.77 583.875 801.143 584.059 794.988ZM682.252 660.78C682.435 654.625 673.472 654.253 673.288 660.408C673.105 666.547 682.068 666.92 682.252 660.78ZM872.717 664.402C872.9 658.262 863.922 657.89 863.739 664.029C863.555 670.184 872.533 670.542 872.717 664.402ZM559.514 308.618C559.698 302.463 550.734 302.091 550.55 308.246C550.367 314.385 559.33 314.758 559.514 308.618ZM641.823 263.825C642.006 257.686 633.028 257.313 632.845 263.453C632.662 269.592 641.639 269.965 641.823 263.825ZM1056.25 317.157C1056.44 311.002 1047.46 310.629 1047.27 316.784C1047.09 322.924 1056.07 323.297 1056.25 317.157ZM1023.99 290.592C1024.17 284.453 1015.2 284.08 1015.01 290.22C1014.83 296.375 1023.81 296.747 1023.99 290.592ZM663.341 306.236C663.525 300.096 654.547 299.723 654.364 305.863C654.18 312.018 663.158 312.391 663.341 306.236ZM689.72 805.037C689.904 798.883 680.926 798.51 680.742 804.665C680.559 810.804 689.537 811.177 689.72 805.037Z" fill="#F2F2F2"/>
</g>
<mask id="mask1_79_3140" style="mask-type:luminance" maskUnits="userSpaceOnUse" x="817" y="0" width="584" height="954">
<path d="M912.104 0L1400.3 83.9755L1305.97 953.01L817.777 869.034L912.104 0Z" fill="white"/>
</mask>
<g mask="url(#mask1_79_3140)">
<path d="M1007.88 151.958C1002.83 151.088 1003.83 141.796 1008.89 142.666C1013.95 143.536 1012.94 152.828 1007.88 151.958ZM1044.06 114.451C1043.33 113.755 1042.54 113.62 1041.68 114.042L1040.87 114.501C1040.46 114.699 1040.12 115.015 1039.85 115.433C1039.56 115.848 1039.39 116.343 1039.33 116.887C1039.26 117.698 1039.42 118.444 1039.84 119.131C1040.29 119.762 1040.86 120.159 1041.54 120.307C1042.51 120.474 1043.29 120.098 1043.89 119.199L1044.49 118.388C1045.06 117.543 1045.16 116.602 1044.79 115.58C1044.62 115.131 1044.38 114.761 1044.06 114.451ZM1019.69 91.7919C1014.64 90.9218 1013.63 100.214 1018.69 101.084C1023.74 101.954 1024.76 92.6642 1019.69 91.7919ZM1030.62 172.315C1025.55 171.443 1024.55 180.735 1029.62 181.607C1034.67 182.477 1035.69 173.187 1030.62 172.315ZM1175.52 153.169C1170.45 152.297 1169.45 161.589 1174.52 162.461C1179.57 163.332 1180.58 154.04 1175.52 153.169ZM1166.38 132.816C1161.33 131.946 1160.32 141.238 1165.38 142.108C1170.45 142.981 1171.45 133.689 1166.38 132.816ZM1205.39 121.661C1200.32 120.789 1199.32 130.066 1204.39 130.938C1209.44 131.808 1210.45 122.531 1205.39 121.661ZM1259.5 -27.2276C1254.45 -28.0977 1253.44 -18.8057 1258.5 -17.9356C1263.57 -17.0633 1264.57 -26.3553 1259.5 -27.2276ZM1258.21 5.6193C1253.16 4.74915 1252.15 14.0412 1257.21 14.9113C1262.28 15.7836 1263.28 6.49159 1258.21 5.6193ZM1374.08 7.56774C1373.9 7.38642 1373.67 7.27219 1373.43 7.20207C1373.36 7.08414 1373.28 6.96622 1373.19 6.86086C1372.57 6.28935 1371.92 6.22201 1371.25 6.67569C1370.56 7.12722 1370.28 7.81336 1370.39 8.74451L1370.41 8.74879C1370.53 9.74303 1370.98 10.4484 1371.75 10.8818C1372.24 11.1608 1372.75 11.2487 1373.29 11.116C1373.73 11.0271 1374.1 10.7909 1374.38 10.3759C1374.67 9.94613 1374.78 9.45481 1374.72 8.90623C1374.67 8.35765 1374.45 7.91567 1374.08 7.56774ZM1275.17 111.082C1270.11 110.212 1269.11 119.489 1274.17 120.359C1279.24 121.232 1280.23 111.952 1275.17 111.082ZM1374.58 82.477C1379.64 83.3471 1380.66 74.0572 1375.59 73.185C1370.53 72.3148 1369.52 81.6068 1374.58 82.477ZM1124.62 805.751C1119.55 804.878 1118.54 814.17 1123.61 815.043C1128.67 815.913 1129.68 806.621 1124.62 805.751ZM1125.66 770.075C1120.6 769.205 1119.59 778.482 1124.65 779.352C1129.72 780.224 1130.73 770.947 1125.66 770.075ZM1141.74 777.844C1136.68 776.974 1135.68 786.252 1140.74 787.122C1145.81 787.994 1146.81 778.717 1141.74 777.844ZM1268.3 846.317C1263.25 845.447 1262.24 854.739 1267.3 855.609C1272.35 856.479 1273.36 847.187 1268.3 846.317ZM1267.19 804.432C1262.14 803.561 1261.13 812.853 1266.19 813.724C1271.26 814.596 1272.26 805.304 1267.19 804.432ZM1295.55 855.169C1290.49 854.299 1289.49 863.591 1294.54 864.461C1299.61 865.333 1300.61 856.039 1295.55 855.169ZM1318.95 343.954C1324.01 344.824 1325.03 335.549 1319.96 334.676C1314.9 333.806 1313.88 343.082 1318.95 343.954ZM1312.88 265.479C1307.82 264.609 1306.8 273.899 1311.87 274.771C1316.93 275.641 1317.93 266.349 1312.87 265.477L1312.88 265.479ZM1352.42 280.4C1347.37 279.53 1346.36 288.822 1351.42 289.692C1356.49 290.565 1357.48 281.271 1352.42 280.4ZM1074.58 50.3896C1074.84 49.9997 1075.03 49.5528 1075.14 49.0783C1075.24 48.587 1075.27 48.0975 1075.22 47.5952C1075.16 47.1054 1075.04 46.6343 1074.82 46.1923C1074.61 45.7525 1074.34 45.3755 1074 45.0487L1073.28 44.5504C1072.88 44.3158 1072.46 44.2135 1072.02 44.2583C1071.91 44.2537 1071.8 44.2659 1071.69 44.276L1071.66 44.2718L1070.99 44.2611L1070.36 44.4523C1070.04 44.592 1069.78 44.8012 1069.57 45.0946C1069.4 45.26 1069.26 45.4613 1069.17 45.7005C1069.04 45.9018 1068.95 46.141 1068.93 46.4078C1068.84 46.6617 1068.81 46.9264 1068.85 47.2017C1068.82 47.4076 1068.84 47.6051 1068.87 47.8048L1068.87 48.5234C1068.92 49.011 1069.06 49.4696 1069.3 49.8864C1069.48 50.3367 1069.75 50.7116 1070.1 51.0111C1070.42 51.3358 1070.8 51.5514 1071.22 51.6536C1072.58 52.0827 1073.69 51.6599 1074.58 50.3896ZM1049.87 23.3444C1049.92 23.3529 1049.96 23.3594 1050.01 23.3679C1050.62 23.4877 1051.24 23.6536 1051.85 23.7145C1052.5 23.8113 1053.13 23.7252 1053.73 23.4541C1054.15 23.2706 1054.49 22.9713 1054.78 22.5709C1055.06 22.1706 1055.24 21.7068 1055.34 21.1839C1055.42 20.6736 1055.38 20.1587 1055.25 19.6561C1055.11 19.1388 1054.88 18.7094 1054.57 18.3406C1054.02 17.7231 1053.39 17.3449 1052.66 17.1743C1052.02 17.0335 1051.37 16.9367 1050.71 16.8694C1049.96 16.7093 1049.26 16.9044 1048.65 17.4276C1048.03 17.9508 1047.67 18.6661 1047.56 19.5608C1047.43 20.4534 1047.61 21.2776 1048.06 22.0145C1048.52 22.7515 1049.12 23.1989 1049.87 23.3444ZM1111.85 54.3753C1106.79 53.5052 1105.78 62.7972 1110.84 63.6673C1115.91 64.5396 1116.92 55.2476 1111.85 54.3753ZM1072.35 98.4413L1072.98 99.6726C1073.5 100.481 1074.17 100.761 1074.99 100.511C1075.8 100.262 1076.27 99.6543 1076.38 98.6545C1076.45 98.037 1076.32 97.4756 1075.99 96.9849L1075.16 95.9295C1074.84 95.4851 1074.46 95.2085 1073.99 95.0976C1073.5 95.014 1073.05 95.147 1072.66 95.4987C1072.28 95.8525 1072.05 96.3077 1071.99 96.8811L1071.99 97.4505C1072.04 97.8183 1072.16 98.1528 1072.35 98.4413ZM1194.16 -24.4669C1199.22 -23.5967 1200.24 -32.8866 1195.17 -33.7589C1190.11 -34.629 1189.1 -25.337 1194.16 -24.4669ZM1424.3 100.017C1419.24 99.147 1418.23 108.439 1423.29 109.309C1428.36 110.181 1429.35 100.887 1424.3 100.017ZM1391.02 50.9041C1391.63 51.0386 1392.17 50.8933 1392.66 50.4685C1393.17 50.0457 1393.46 49.4815 1393.53 48.7611C1393.63 48.0428 1393.48 47.3889 1393.1 46.814C1392.73 46.2265 1392.23 45.8865 1391.62 45.7962C1391.01 45.6912 1390.47 45.868 1389.99 46.3244C1389.53 46.7683 1389.26 47.3515 1389.21 48.0762C1389.15 48.7547 1389.29 49.3645 1389.64 49.9036C1390 50.4448 1390.45 50.7761 1391.02 50.9041ZM1062.32 330.215L1061.86 329.928C1054.46 325.179 1052.46 343.091 1060.67 340.999L1061.16 340.874C1062.18 340.691 1063.05 340.152 1063.77 339.272C1064.49 338.392 1064.92 337.343 1065.05 336.122C1065.18 334.902 1064.99 333.746 1064.49 332.656C1063.98 331.565 1063.26 330.752 1062.32 330.215ZM1049.63 288.164C1044.56 287.292 1043.55 296.569 1048.62 297.442C1053.68 298.312 1054.69 289.034 1049.63 288.164ZM1013.94 675.701C1013.82 674.765 1013.43 673.98 1012.81 673.365C1012.14 672.77 1011.4 672.522 1010.56 672.632C1009.93 672.718 1009.32 672.943 1008.76 673.311C1008.28 673.618 1007.87 674.027 1007.52 674.536C1007.42 674.698 1007.3 674.872 1007.19 675.033C1006.57 675.989 1006.32 677.07 1006.46 678.277C1006.54 678.891 1006.72 679.446 1007.01 679.974C1007.29 680.503 1007.65 680.939 1008.09 681.283C1008.53 681.629 1009 681.845 1009.52 681.949C1010.03 682.067 1010.54 682.035 1011.05 681.883C1011.52 681.784 1011.94 681.556 1012.31 681.2C1012.81 680.748 1013.19 680.17 1013.45 679.479L1013.45 679.464C1013.76 678.875 1013.96 678.235 1014.05 677.531C1014.09 676.924 1014.06 676.304 1013.94 675.701ZM1104.33 598.876C1099.27 598.006 1098.26 607.283 1103.32 608.153C1108.39 609.025 1109.38 599.746 1104.33 598.876ZM1128.64 643.63C1123.58 642.76 1122.57 652.052 1127.63 652.922C1132.69 653.792 1133.69 644.5 1128.64 643.63ZM1141.91 600.265C1136.85 599.395 1135.85 608.687 1140.91 609.557C1145.96 610.428 1146.98 601.138 1141.91 600.265ZM970.952 745.164C965.883 744.292 964.877 753.569 969.947 754.441C975.005 755.312 976.01 746.034 970.952 745.164ZM917.517 509.927C916.897 509.791 916.322 509.947 915.818 510.384C915.315 510.807 915.01 511.398 914.93 512.133C914.838 512.866 914.982 513.535 915.373 514.141C915.751 514.746 916.26 515.088 916.897 515.182C917.52 515.29 918.073 515.1 918.566 514.646C919.049 514.175 919.329 513.579 919.384 512.84C919.434 512.144 919.286 511.52 918.927 510.964C918.57 510.393 918.099 510.058 917.517 509.927ZM1339.48 518.608C1334.42 517.738 1333.41 527.03 1338.47 527.901C1343.54 528.773 1344.55 519.481 1339.48 518.608ZM1343.26 483.749C1338.2 482.879 1337.19 492.171 1342.25 493.041C1347.32 493.913 1348.33 484.621 1343.26 483.749ZM1240.04 366.814C1234.97 365.942 1233.97 375.219 1239.03 376.092C1244.09 376.962 1245.1 367.684 1240.04 366.814ZM1257.86 169.208C1252.8 168.338 1251.8 177.63 1256.85 178.5C1261.92 179.373 1262.92 170.078 1257.86 169.208ZM939.587 455.436C934.517 454.563 933.512 463.841 938.581 464.713C943.639 465.583 944.644 456.306 939.587 455.436ZM908.994 364.91C903.937 364.04 902.93 373.332 907.988 374.202C913.045 375.072 914.052 365.78 908.994 364.91ZM985.313 -60.0262C980.243 -60.8985 979.236 -51.6065 984.306 -50.7342C989.363 -49.864 990.37 -59.156 985.313 -60.0262ZM960.858 -29.428C955.8 -30.2982 954.794 -21.0062 959.851 -20.136C964.921 -19.2637 965.928 -28.5558 960.858 -29.428ZM945.702 347.233C940.645 346.363 939.638 355.655 944.695 356.525C949.765 357.397 950.772 348.105 945.702 347.233ZM1359.78 375.016C1354.71 374.144 1353.71 383.436 1358.78 384.308C1363.83 385.178 1364.84 375.886 1359.78 375.016Z" fill="#F2F2F2"/>
</g>
<mask id="mask2_79_3140" style="mask-type:luminance" maskUnits="userSpaceOnUse" x="-352" y="-346" width="985" height="1123">
<path d="M194.718 -345.397L632.555 60.0767L86.7227 776.685L-351.114 371.211L194.718 -345.397Z" fill="white"/>
</mask>
<g mask="url(#mask2_79_3140)">
<path d="M205.569 -133.996C201.03 -138.199 206.864 -145.858 211.402 -141.655C215.941 -137.452 210.107 -129.793 205.569 -133.996ZM260.814 -143.179C260.45 -144.302 259.746 -144.955 258.679 -145.157L257.639 -145.293C257.127 -145.396 256.628 -145.341 256.14 -145.152C255.642 -144.973 255.218 -144.642 254.877 -144.194C254.38 -143.517 254.149 -142.739 254.207 -141.838C254.324 -140.965 254.676 -140.226 255.272 -139.632C256.144 -138.825 257.106 -138.636 258.172 -139.034L259.182 -139.359C260.188 -139.729 260.779 -140.505 260.945 -141.674C261.013 -142.189 260.971 -142.684 260.814 -143.179ZM248.564 -180.006C244.025 -184.209 238.192 -176.55 242.73 -172.347C247.269 -168.144 253.113 -175.793 248.564 -180.006ZM217.411 -100.337C212.862 -104.551 207.028 -96.892 211.578 -92.6786C216.116 -88.4755 221.961 -96.1239 217.411 -100.337ZM370.403 -19.4749C365.853 -23.6883 360.02 -16.0296 364.569 -11.8161C369.108 -7.61306 374.942 -15.2718 370.403 -19.4749ZM371.984 -43.9262C367.445 -48.1293 361.612 -40.4705 366.151 -36.2675C370.7 -32.054 376.534 -39.7128 371.984 -43.9262ZM416.297 -27.5435C411.747 -31.7569 405.923 -24.1103 410.473 -19.8969C415.011 -15.6938 420.836 -23.3404 416.297 -27.5435ZM547.254 -124.564C542.716 -128.767 536.882 -121.108 541.421 -116.905C545.97 -112.692 551.804 -120.351 547.254 -124.564ZM528.875 -95.9538C524.336 -100.157 518.503 -92.4981 523.041 -88.295C527.591 -84.0816 533.424 -91.7404 528.875 -95.9538ZM642.223 -15.8041C642.136 -16.091 641.97 -16.3482 641.776 -16.5692C641.762 -16.7265 641.749 -16.8838 641.715 -17.0393C641.397 -17.974 640.788 -18.476 639.89 -18.5227C638.98 -18.5799 638.349 -18.1517 637.965 -17.2468L637.987 -17.2261C637.588 -16.2521 637.659 -15.3187 638.201 -14.4034C638.539 -13.8214 638.998 -13.397 639.594 -13.1543C640.076 -12.9357 640.562 -12.8985 641.061 -13.0775C641.569 -13.2686 641.927 -13.6392 642.159 -14.1686C642.391 -14.698 642.405 -15.2426 642.223 -15.8041ZM490.682 10.1782C486.143 5.97517 480.319 13.6218 484.857 17.8249C489.407 22.0383 495.22 14.3813 490.682 10.1782ZM603.698 51.7679C608.237 55.971 614.082 48.3226 609.532 44.1092C604.994 39.9062 599.16 47.5649 603.698 51.7679ZM-19.7379 531.803C-24.2877 527.59 -30.1212 535.249 -25.5715 539.462C-21.0329 543.665 -15.1994 536.006 -19.7379 531.803ZM-0.133464 500.484C-4.67201 496.28 -10.4963 503.927 -5.95779 508.13C-1.40807 512.344 4.41625 504.697 -0.133464 500.484ZM11.6959 518.341C7.1574 514.138 1.33308 521.785 5.87162 525.988C10.4213 530.201 16.2457 522.555 11.6959 518.341ZM100.951 665.437C96.4129 661.234 90.5793 668.892 95.1179 673.095C99.6564 677.299 105.49 669.64 100.951 665.437ZM121.674 627.093C117.135 622.89 111.302 630.548 115.84 634.751C120.39 638.965 126.224 631.306 121.674 627.093ZM123.236 691.819C118.697 687.616 112.863 695.275 117.402 699.478C121.952 703.691 127.774 696.022 123.236 691.819ZM412.604 248.816C417.142 253.019 422.978 245.383 418.428 241.17C413.889 236.966 408.054 244.603 412.604 248.816ZM447.48 174.27C442.941 170.067 437.097 177.715 441.646 181.929C446.185 186.132 452.018 178.473 447.469 174.26L447.48 174.27ZM478.741 214.421C474.202 210.218 468.369 217.877 472.907 222.08C477.457 226.293 483.279 218.624 478.741 214.421ZM324.302 -180.028C324.76 -180.203 325.178 -180.477 325.539 -180.825C325.897 -181.196 326.179 -181.617 326.395 -182.099C326.589 -182.58 326.71 -183.089 326.724 -183.633C326.75 -184.168 326.674 -184.693 326.516 -185.211L326.064 -186.146C325.786 -186.631 325.424 -187.007 324.97 -187.262C324.86 -187.343 324.753 -187.402 324.633 -187.471L324.611 -187.492L323.954 -187.956L323.233 -188.21C322.845 -188.301 322.475 -188.292 322.116 -188.17C321.862 -188.137 321.623 -188.048 321.41 -187.894C321.171 -187.805 320.958 -187.651 320.803 -187.422C320.581 -187.256 320.415 -187.038 320.304 -186.768C320.175 -186.598 320.089 -186.41 320.013 -186.211L319.637 -185.567C319.432 -185.097 319.332 -184.59 319.358 -184.049C319.301 -183.523 319.366 -183.008 319.554 -182.504C319.7 -181.996 319.966 -181.543 320.327 -181.167C321.448 -179.86 322.766 -179.487 324.302 -180.028ZM314.004 -221.019C314.048 -220.978 314.082 -220.947 314.126 -220.906C314.665 -220.386 315.187 -219.82 315.762 -219.349C316.353 -218.823 317.021 -218.473 317.755 -218.31C318.258 -218.195 318.759 -218.227 319.248 -218.394C319.738 -218.561 320.154 -218.858 320.52 -219.263C320.865 -219.666 321.101 -220.151 321.228 -220.694C321.365 -221.249 321.359 -221.792 321.24 -222.336C321.027 -223.257 320.6 -224.024 319.969 -224.671C319.406 -225.234 318.815 -225.76 318.206 -226.262C317.543 -226.918 316.757 -227.212 315.877 -227.158C314.997 -227.105 314.26 -226.713 313.686 -225.984C313.101 -225.265 312.846 -224.406 312.91 -223.438C312.973 -222.47 313.331 -221.663 314.004 -221.019ZM359.009 -151.234C354.471 -155.437 348.637 -147.778 353.176 -143.575C357.725 -139.362 363.559 -147.021 359.009 -151.234ZM297.078 -138.405L297.057 -136.875C297.15 -135.796 297.664 -135.093 298.597 -134.767C299.53 -134.44 300.312 -134.666 300.94 -135.49C301.327 -135.999 301.492 -136.591 301.424 -137.253L301.16 -138.758C301.076 -139.373 300.836 -139.884 300.43 -140.302C299.994 -140.706 299.485 -140.888 298.913 -140.839C298.353 -140.779 297.892 -140.524 297.532 -140.051L297.237 -139.539C297.094 -139.176 297.034 -138.797 297.078 -138.405ZM481.322 -166.3C485.861 -162.097 491.705 -169.745 487.156 -173.958C482.617 -178.162 476.784 -170.503 481.322 -166.3ZM643.635 101.152C639.097 96.9493 633.263 104.608 637.802 108.811C642.351 113.025 648.174 105.355 643.635 101.152ZM636.37 34.5538C636.899 35.0854 637.516 35.3263 638.221 35.2766C638.938 35.2373 639.517 34.9267 639.97 34.3329C640.433 33.7495 640.631 33.0646 640.553 32.2902C640.496 31.5141 640.184 30.8732 639.627 30.3781C639.079 29.8708 638.454 29.6645 637.742 29.7488C637.05 29.8313 636.484 30.1746 636.054 30.7891C635.64 31.3569 635.47 32.0055 635.533 32.7246C635.606 33.454 635.874 34.0534 636.37 34.5538ZM166.449 62.8297L166.154 62.2667C161.32 52.9953 150.012 67.7157 159.203 71.3917L159.757 71.6154C160.862 72.1425 162.002 72.2475 163.168 71.9429C164.334 71.6382 165.306 70.9882 166.072 69.9824C166.838 68.9765 167.251 67.8089 167.322 66.4897C167.393 65.1705 167.102 63.9505 166.449 62.8297ZM175.829 16.502C171.279 12.2886 165.455 19.9352 170.004 24.1486C174.543 28.3517 180.367 20.7051 175.829 16.502ZM-61.2429 340.188C-60.881 339.262 -60.8516 338.297 -61.1414 337.326C-61.4944 336.338 -62.1024 335.61 -62.986 335.143C-63.6537 334.793 -64.371 334.583 -65.1155 334.535C-65.7467 334.487 -66.3663 334.575 -66.9741 334.797C-67.1631 334.87 -67.3726 334.945 -67.5616 335.018C-68.6753 335.454 -69.4793 336.259 -69.9737 337.434C-70.2088 338.043 -70.3195 338.664 -70.313 339.331C-70.3066 339.998 -70.1796 340.633 -69.9321 341.234C-69.6735 341.845 -69.3206 342.358 -68.8604 342.805C-68.4205 343.254 -67.8995 343.571 -67.3158 343.781C-66.8026 344.008 -66.2715 344.087 -65.7224 344.016C-64.9877 343.953 -64.3113 343.691 -63.7025 343.242L-63.6933 343.23C-63.0728 342.916 -62.5457 342.474 -62.0915 341.902C-61.7354 341.385 -61.4464 340.805 -61.2429 340.188ZM67.9819 332.391C63.4434 328.188 57.6191 335.835 62.1576 340.038C66.7073 344.251 72.5205 336.594 67.9819 332.391ZM68.6657 389.009C64.1271 384.806 58.2936 392.465 62.8321 396.668C67.3707 400.871 73.2042 393.212 68.6657 389.009ZM104.356 359.071C99.8178 354.868 93.9842 362.527 98.5228 366.73C103.061 370.933 108.906 363.284 104.356 359.071ZM-139.857 373.444C-144.407 369.23 -150.231 376.877 -145.681 381.09C-141.143 385.293 -135.319 377.647 -139.857 373.444ZM-70.0757 126.151C-70.6161 125.609 -71.2649 125.36 -71.9904 125.411C-72.7067 125.45 -73.316 125.775 -73.7775 126.381C-74.2501 126.976 -74.457 127.673 -74.3869 128.482C-74.3279 129.281 -74.0041 129.932 -73.4248 130.448C-72.8659 130.965 -72.221 131.17 -71.4975 131.096C-70.7759 131 -70.1889 130.655 -69.7498 130.028C-69.3383 129.438 -69.1591 128.777 -69.2234 128.035C-69.2785 127.282 -69.5687 126.662 -70.0757 126.151ZM341.893 419.465C337.354 415.262 331.521 422.921 336.059 427.124C340.609 431.337 346.442 423.678 341.893 419.465ZM363.778 390.733C359.239 386.529 353.406 394.188 357.944 398.391C362.494 402.605 368.328 394.946 363.778 390.733ZM322.806 215.937C318.256 211.724 312.432 219.37 316.982 223.584C321.52 227.787 327.345 220.14 322.806 215.937ZM443.319 50.6348C438.78 46.4318 432.947 54.0905 437.485 58.2936C442.035 62.507 447.858 54.8379 443.319 50.6348ZM-19.9098 92.1756C-24.4595 87.9622 -30.2838 95.6088 -25.7341 99.8222C-21.1955 104.025 -15.3713 96.3787 -19.9098 92.1756ZM-2.95466 -9.77564C-7.49319 -13.9787 -13.3267 -6.31998 -8.78819 -2.11691C-4.24965 2.08616 1.58388 -5.57257 -2.95466 -9.77564ZM293.703 -339.534C289.154 -343.747 283.32 -336.089 287.87 -331.875C292.408 -327.672 298.242 -335.331 293.703 -339.534ZM253.629 -328.618C249.09 -332.821 243.256 -325.162 247.795 -320.959C252.345 -316.746 258.178 -324.405 253.629 -328.618ZM42.4842 -0.80285C37.9456 -5.00592 32.1121 2.65281 36.6506 6.85588C41.2003 11.0693 47.0339 3.41057 42.4842 -0.80285ZM436.724 304.323C432.175 300.11 426.341 307.769 430.891 311.982C435.429 316.185 441.263 308.526 436.724 304.323Z" fill="#F2F2F2"/>
</g>
</g>
<defs>
<clipPath id="clip0_79_3140">
<rect width="1440" height="1024" fill="white"/>
</clipPath>
</defs>
</svg>
